<svg xmlns="http://www.w3.org/2000/svg" xmlns:xlink="http://www.w3.org/1999/xlink" width="156.45" height="130.8" viewBox="0 0 156.45 130.8">
  <defs>
    <linearGradient id="linear-gradient" x1="0.5" x2="0.5" y2="1" gradientUnits="objectBoundingBox">
      <stop offset="0" stop-color="#f8ce7b"/>
      <stop offset="1" stop-color="#fae2af"/>
    </linearGradient>
    <filter id="Path_28" x="0" y="0" width="156.45" height="130.8" filterUnits="userSpaceOnUse">
      <feOffset dy="-3" input="SourceAlpha"/>
      <feGaussianBlur result="blur"/>
      <feFlood flood-color="#fff8e3"/>
      <feComposite operator="in" in2="blur"/>
      <feComposite in="SourceGraphic"/>
    </filter>
  </defs>
  <g transform="matrix(1, 0, 0, 1, 0, 0)" filter="url(#Path_28)">
    <path id="Path_28-2" data-name="Path 28" d="M29.773-27.764a.835.835,0,0,0,0,1.075q6.2,8.778,6.2,29.2,0,17.376-4.308,26.244T20.374,37.622H3.469q-.326,0-.555-.627a4.468,4.468,0,0,1-.228-1.523v-121.1a4.468,4.468,0,0,1,.228-1.523q.228-.627.555-.627H19.852q15.469,0,15.469,34.394Q35.321-35.467,29.773-27.764ZM12.215-66.1q-.326,0-.326.9v27.945q0,.9.326.9h7.636q3.068,0,4.765-3.941t1.7-10.748q0-6.986-1.7-11.017T19.852-66.1Zm8.159,81.866q3,0,4.7-4.21T26.77,0q0-7.345-1.7-11.554t-4.765-4.21H12.215q-.326,0-.326.9V14.871q0,.9.326.9ZM59.34,39.592q-5.091,0-8.975-5.732T44.328,17.827A116.82,116.82,0,0,1,42.174-5.909V-44.244a114.478,114.478,0,0,1,2.154-23.467q2.154-10.211,6.037-15.854t8.975-5.643q5.156,0,9.04,5.643t6.037,15.854a114.479,114.479,0,0,1,2.154,23.467V-5.909a118.163,118.163,0,0,1-2.154,23.825q-2.154,10.39-6.037,16.033T59.34,39.592Zm0-21.676q3.59,0,5.809-6.27t2.219-16.66v-39.41q0-10.39-2.187-16.749T59.34-67.532q-3.59,0-5.776,6.359T51.377-44.424v39.41q0,10.39,2.187,16.66T59.34,17.916Zm49.343,19.705q-.653,0-.914-1.612L99.611-13.612q-.131-.717-.392-.717h-6.07q-.326,0-.326.9v48.9a4.469,4.469,0,0,1-.228,1.523q-.228.627-.555.627H84.4q-.326,0-.555-.627a4.468,4.468,0,0,1-.228-1.523v-121.1a4.468,4.468,0,0,1,.228-1.523q.228-.627.555-.627H103.07q4.177,0,7.343,4.658t4.9,13.256a101.675,101.675,0,0,1,1.73,19.884,85.309,85.309,0,0,1-2.219,20.87q-2.219,8.688-6.2,12.271a1.529,1.529,0,0,0-.2,1.254l8.877,50.7a6.6,6.6,0,0,1,.131,1.075q0,1.433-.718,1.433ZM93.149-66.1q-.326,0-.326.9v30.633q0,.9.326.9h8.55q2.741,0,4.471-4.478A32.831,32.831,0,0,0,107.9-49.8a33.6,33.6,0,0,0-1.73-11.734Q104.441-66.1,101.7-66.1Zm56.784-19.526a4.468,4.468,0,0,1,.228-1.523q.228-.627.555-.627h7.636q.326,0,.555.627a4.468,4.468,0,0,1,.228,1.523v121.1a4.468,4.468,0,0,1-.228,1.523q-.228.627-.555.627h-7.375q-.653,0-.914-1.433l-16.9-76.671q-.131-.537-.261-.448t-.131.806l.131,75.6a4.468,4.468,0,0,1-.228,1.523q-.228.627-.555.627h-7.636q-.326,0-.555-.627a4.469,4.469,0,0,1-.228-1.523v-121.1a4.468,4.468,0,0,1,.228-1.523q.228-.627.555-.627h7.375q.653,0,.914,1.433l16.839,76.313q.131.537.261.448t.131-.806Z" transform="translate(-2.69 91.21)" fill="url(#linear-gradient)"/>
  </g>
</svg>
