<svg xmlns="http://www.w3.org/2000/svg" xmlns:xlink="http://www.w3.org/1999/xlink" width="105.437" height="91.194" viewBox="0 0 105.437 91.194">
  <defs>
    <linearGradient id="linear-gradient" x1="0.53" y1="0.104" x2="0.521" y2="0.835" gradientUnits="objectBoundingBox">
      <stop offset="0" stop-color="#2ba6f5"/>
      <stop offset="1" stop-color="#7fd4ff"/>
    </linearGradient>
    <filter id="Path_26" x="0" y="0" width="105.437" height="91.194" filterUnits="userSpaceOnUse">
      <feOffset dy="-3" input="SourceAlpha"/>
      <feGaussianBlur result="blur"/>
      <feFlood flood-color="#cdeeff"/>
      <feComposite operator="in" in2="blur"/>
      <feComposite in="SourceGraphic"/>
    </filter>
  </defs>
  <g transform="matrix(1, 0, 0, 1, 0, 0)" filter="url(#Path_26)">
    <path id="Path_26-2" data-name="Path 26" d="M400.5-88.211q.227,0,.386.436a3.109,3.109,0,0,1,.159,1.059v12.208a3.109,3.109,0,0,1-.159,1.059q-.159.436-.386.436h-8.125q-.227,0-.227.623V-2.505a3.107,3.107,0,0,1-.159,1.059q-.159.436-.386.436h-5.31q-.227,0-.386-.436a3.11,3.11,0,0,1-.159-1.059V-72.391q0-.623-.227-.623h-7.9q-.227,0-.386-.436a3.108,3.108,0,0,1-.159-1.059V-86.717a3.107,3.107,0,0,1,.159-1.059q.159-.436.386-.436Zm26.688,13.578a3.107,3.107,0,0,1-.159,1.059q-.159.436-.386.436H411.753q-.227,0-.227.623v19.309q0,.623.227.623h9.759q.227,0,.386.436a3.107,3.107,0,0,1,.159,1.059v12.084a3.107,3.107,0,0,1-.159,1.059q-.159.436-.386.436h-9.759q-.227,0-.227.623v20.181q0,.623.227.623h14.887q.227,0,.386.436a3.107,3.107,0,0,1,.159,1.059V-2.505a3.107,3.107,0,0,1-.159,1.059q-.159.436-.386.436H405.671q-.227,0-.386-.436a3.109,3.109,0,0,1-.159-1.059V-86.717a3.109,3.109,0,0,1,.159-1.059q.159-.436.386-.436h20.969q.227,0,.386.436a3.107,3.107,0,0,1,.159,1.059ZM442.8-.014q-3.54,0-6.218-3.8a29.017,29.017,0,0,1-4.13-10.651A76.864,76.864,0,0,1,431-30.285V-59.061a76.864,76.864,0,0,1,1.452-15.821q1.452-6.852,4.13-10.589t6.218-3.737q3.495,0,6.15,3.55a26.7,26.7,0,0,1,4.13,10.09,69.28,69.28,0,0,1,1.475,15.136q0,1.121-.545,1.37l-5.31.872h-.091q-.454,0-.454-1.37a31.207,31.207,0,0,0-1.475-10.589q-1.475-3.986-3.881-3.986-2.451,0-3.926,3.986A31.21,31.21,0,0,0,437.4-59.56v30.022a30.755,30.755,0,0,0,1.475,10.464q1.475,3.986,3.926,3.986,2.406,0,3.881-3.986a30.752,30.752,0,0,0,1.475-10.464q0-1.37.545-1.37l5.31.623q.227,0,.386.374a2.215,2.215,0,0,1,.159.872,70.147,70.147,0,0,1-1.475,15.2,27.386,27.386,0,0,1-4.13,10.215Q446.294-.014,442.8-.014Zm33.315-86.7a3.107,3.107,0,0,1,.159-1.059q.159-.436.386-.436h5.31q.227,0,.386.436a3.107,3.107,0,0,1,.159,1.059V-2.505a3.108,3.108,0,0,1-.159,1.059q-.159.436-.386.436h-5.31q-.227,0-.386-.436a3.107,3.107,0,0,1-.159-1.059V-36.887q0-.623-.227-.623H465.856q-.227,0-.227.623V-2.505a3.108,3.108,0,0,1-.159,1.059q-.159.436-.386.436h-5.31q-.227,0-.386-.436a3.109,3.109,0,0,1-.159-1.059V-86.717a3.109,3.109,0,0,1,.159-1.059q.159-.436.386-.436h5.31q.227,0,.386.436a3.107,3.107,0,0,1,.159,1.059v33.51q0,.623.227.623h10.031q.227,0,.227-.623Z" transform="translate(-377.08 91.21)" fill="url(#linear-gradient)"/>
  </g>
</svg>
