<svg xmlns="http://www.w3.org/2000/svg" xmlns:xlink="http://www.w3.org/1999/xlink" width="349.323" height="130.263" viewBox="0 0 349.323 130.263">
  <defs>
    <linearGradient id="linear-gradient" x1="0.5" y1="0.229" x2="0.5" y2="1" gradientUnits="objectBoundingBox">
      <stop offset="0" stop-color="#6cced5"/>
      <stop offset="1" stop-color="#9ff6fb"/>
    </linearGradient>
    <filter id="Path_27" x="0" y="0" width="349.323" height="130.263" filterUnits="userSpaceOnUse">
      <feOffset dy="-2" input="SourceAlpha"/>
      <feGaussianBlur result="blur"/>
      <feFlood flood-color="#adf0ff"/>
      <feComposite operator="in" in2="blur"/>
      <feComposite in="SourceGraphic"/>
    </filter>
  </defs>
  <g transform="matrix(1, 0, 0, 1, 0, 0)" filter="url(#Path_27)">
    <path id="Path_27-2" data-name="Path 27" d="M179.435,37.442q-.326,0-.555-.627a4.469,4.469,0,0,1-.228-1.523V-10.029a6.505,6.505,0,0,0-.065-1.075L165.141-85.267a6.6,6.6,0,0,1-.131-1.075q0-1.433.718-1.433h8.224q.653,0,.914,1.612l8.159,47.651q.2,1.075.392,0l8.159-47.651q.261-1.612.914-1.612h8.354q.457,0,.62.627a4.987,4.987,0,0,1-.033,1.881L187.855-11.1a6.5,6.5,0,0,0-.065,1.075V35.293a4.469,4.469,0,0,1-.228,1.523q-.228.627-.555.627ZM242.9-68.249a4.468,4.468,0,0,1-.228,1.523q-.228.627-.555.627H220.711q-.326,0-.326.9v27.766q0,.9.326.9h14.033q.326,0,.555.627a4.468,4.468,0,0,1,.228,1.523v17.376a4.468,4.468,0,0,1-.228,1.523q-.228.627-.555.627H220.711q-.326,0-.326.9V15.05q0,.9.326.9h21.408q.326,0,.555.627A4.468,4.468,0,0,1,242.9,18.1V35.472a4.468,4.468,0,0,1-.228,1.523q-.228.627-.555.627H211.965q-.326,0-.555-.627a4.468,4.468,0,0,1-.228-1.523v-121.1a4.468,4.468,0,0,1,.228-1.523q.228-.627.555-.627h30.154q.326,0,.555.627a4.468,4.468,0,0,1,.228,1.523Zm22.061,107.3q-5.222,0-9.138-4.568T249.788,21.41a82.366,82.366,0,0,1-2.121-19.795V-2.326a4.469,4.469,0,0,1,.228-1.523q.228-.627.555-.627h7.441q.326,0,.555.627a4.469,4.469,0,0,1,.228,1.523V.361a27.307,27.307,0,0,0,2.415,12.092q2.415,4.926,6.527,4.926,3.459,0,5.156-4.031a25.666,25.666,0,0,0,1.7-9.942,21.941,21.941,0,0,0-1.044-7.255,17.6,17.6,0,0,0-2.839-5.195q-1.795-2.239-5.711-6.18a56.082,56.082,0,0,1-7.408-8.419,38.03,38.03,0,0,1-5.091-11.734,69.956,69.956,0,0,1-2.056-18.362,77.794,77.794,0,0,1,2.023-18.809q2.023-8.061,5.613-12.361t8.289-4.3q4.96,0,8.844,4.837t6.07,13.525a83.062,83.062,0,0,1,2.187,20.153v2.687a4.467,4.467,0,0,1-.228,1.523q-.228.627-.555.627h-7.506q-.326,0-.555-.627a4.468,4.468,0,0,1-.228-1.523v-1.433a32.625,32.625,0,0,0-2.252-12.808q-2.252-5.285-6.168-5.285-3.068,0-4.8,3.583t-1.73,9.853a24.12,24.12,0,0,0,1.012,7.524,16.9,16.9,0,0,0,3,5.464q1.991,2.418,6.168,6.539a76.786,76.786,0,0,1,7.277,8.24,35.49,35.49,0,0,1,4.765,10.659Q281.672-8.6,281.672,2.69q0,16.839-4.5,26.6T264.964,39.055Zm54.173-126.83q.326,0,.555.627a4.468,4.468,0,0,1,.228,1.523V-68.07a4.468,4.468,0,0,1-.228,1.523q-.228.627-.555.627H307.454q-.326,0-.326.9v100.5a4.468,4.468,0,0,1-.228,1.523q-.228.627-.555.627h-7.636q-.326,0-.555-.627a4.468,4.468,0,0,1-.228-1.523v-100.5q0-.9-.326-.9H286.241q-.326,0-.555-.627a4.468,4.468,0,0,1-.228-1.523V-85.625a4.468,4.468,0,0,1,.228-1.523q.228-.627.555-.627Zm38.378,19.526a4.468,4.468,0,0,1-.228,1.523q-.228.627-.555.627H335.324q-.326,0-.326.9v27.766q0,.9.326.9h14.033q.326,0,.555.627a4.469,4.469,0,0,1,.228,1.523v17.376a4.469,4.469,0,0,1-.228,1.523q-.229.627-.555.627H335.324q-.326,0-.326.9V15.05q0,.9.326.9h21.408q.326,0,.555.627a4.468,4.468,0,0,1,.228,1.523V35.472a4.468,4.468,0,0,1-.228,1.523q-.228.627-.555.627H326.578q-.326,0-.555-.627a4.469,4.469,0,0,1-.228-1.523v-121.1a4.468,4.468,0,0,1,.228-1.523q.228-.627.555-.627h30.154q.326,0,.555.627a4.468,4.468,0,0,1,.228,1.523Zm31.46,105.87q-.653,0-.914-1.612L379.9-13.612q-.131-.717-.392-.717h-6.07q-.326,0-.326.9v48.9a4.469,4.469,0,0,1-.228,1.523q-.228.627-.555.627h-7.637q-.326,0-.555-.627a4.469,4.469,0,0,1-.228-1.523v-121.1a4.469,4.469,0,0,1,.228-1.523q.229-.627.555-.627h18.667q4.177,0,7.343,4.658t4.9,13.256a101.675,101.675,0,0,1,1.73,19.884,85.307,85.307,0,0,1-2.219,20.87q-2.219,8.688-6.2,12.271a1.529,1.529,0,0,0-.2,1.254l8.877,50.7a6.592,6.592,0,0,1,.131,1.075q0,1.433-.718,1.433ZM373.441-66.1q-.326,0-.326.9v30.633q0,.9.326.9h8.55q2.741,0,4.471-4.478a32.829,32.829,0,0,0,1.73-11.644,33.6,33.6,0,0,0-1.73-11.734q-1.73-4.568-4.471-4.568ZM404.77,37.622q-.326,0-.555-.627a4.468,4.468,0,0,1-.228-1.523v-121.1a4.468,4.468,0,0,1,.228-1.523q.228-.627.555-.627h16.317q4.9,0,8.583,4.747t5.711,13.346A87.367,87.367,0,0,1,437.4-49.8V-.356a87.367,87.367,0,0,1-2.023,19.884q-2.023,8.6-5.711,13.346t-8.583,4.747Zm8.42-22.571q0,.9.326.9h7.9q3,0,4.863-5.553T428.2-4.476v-41.2q0-9.315-1.86-14.868T421.348-66.1h-7.832q-.326,0-.326.9Zm57.7,22.571q-.653,0-.848-1.791l-1.958-17.556q-.131-.717-.326-.717H451.7q-.2,0-.326.717L449.479,35.83q-.2,1.791-.849,1.791h-8.289q-.392,0-.587-.627a5,5,0,0,1-.065-1.881l14.1-121.1q.2-1.791.848-1.791h10.247q.653,0,.849,1.791l14.1,121.1a5.127,5.127,0,0,1,.065.9q0,1.612-.718,1.612ZM453.722-3.043q-.065,1.075.261,1.075H465.47q.392,0,.261-1.075l-5.874-53.2q-.065-.717-.2-.627t-.2.627Zm38.509,40.485q-.326,0-.555-.627a4.468,4.468,0,0,1-.228-1.523V-10.029a6.5,6.5,0,0,0-.065-1.075L477.937-85.267a6.594,6.594,0,0,1-.131-1.075q0-1.433.718-1.433h8.224q.653,0,.914,1.612l8.159,47.651q.2,1.075.392,0l8.159-47.651q.261-1.612.914-1.612h8.354q.457,0,.62.627a4.986,4.986,0,0,1-.033,1.881L500.65-11.1a6.5,6.5,0,0,0-.065,1.075V35.293a4.469,4.469,0,0,1-.228,1.523q-.228.627-.555.627Z" transform="translate(-165.01 91.21)" fill="url(#linear-gradient)"/>
  </g>
</svg>
